%TF.GenerationSoftware,KiCad,Pcbnew,(6.0.9)*%
%TF.CreationDate,2022-11-25T17:08:00+01:00*%
%TF.ProjectId,gpio_isolated_switches,6770696f-5f69-4736-9f6c-617465645f73,rev?*%
%TF.SameCoordinates,Original*%
%TF.FileFunction,Copper,L1,Top*%
%TF.FilePolarity,Positive*%
%FSLAX46Y46*%
G04 Gerber Fmt 4.6, Leading zero omitted, Abs format (unit mm)*
G04 Created by KiCad (PCBNEW (6.0.9)) date 2022-11-25 17:08:00*
%MOMM*%
%LPD*%
G01*
G04 APERTURE LIST*
G04 Aperture macros list*
%AMRoundRect*
0 Rectangle with rounded corners*
0 $1 Rounding radius*
0 $2 $3 $4 $5 $6 $7 $8 $9 X,Y pos of 4 corners*
0 Add a 4 corners polygon primitive as box body*
4,1,4,$2,$3,$4,$5,$6,$7,$8,$9,$2,$3,0*
0 Add four circle primitives for the rounded corners*
1,1,$1+$1,$2,$3*
1,1,$1+$1,$4,$5*
1,1,$1+$1,$6,$7*
1,1,$1+$1,$8,$9*
0 Add four rect primitives between the rounded corners*
20,1,$1+$1,$2,$3,$4,$5,0*
20,1,$1+$1,$4,$5,$6,$7,0*
20,1,$1+$1,$6,$7,$8,$9,0*
20,1,$1+$1,$8,$9,$2,$3,0*%
G04 Aperture macros list end*
%TA.AperFunction,ComponentPad*%
%ADD10R,3.960000X1.980000*%
%TD*%
%TA.AperFunction,ComponentPad*%
%ADD11O,3.960000X1.980000*%
%TD*%
%TA.AperFunction,SMDPad,CuDef*%
%ADD12RoundRect,0.200000X0.200000X0.275000X-0.200000X0.275000X-0.200000X-0.275000X0.200000X-0.275000X0*%
%TD*%
%TA.AperFunction,SMDPad,CuDef*%
%ADD13RoundRect,0.150000X0.587500X0.150000X-0.587500X0.150000X-0.587500X-0.150000X0.587500X-0.150000X0*%
%TD*%
%TA.AperFunction,SMDPad,CuDef*%
%ADD14RoundRect,0.225000X0.250000X-0.225000X0.250000X0.225000X-0.250000X0.225000X-0.250000X-0.225000X0*%
%TD*%
%TA.AperFunction,ComponentPad*%
%ADD15R,1.700000X1.700000*%
%TD*%
%TA.AperFunction,ComponentPad*%
%ADD16O,1.700000X1.700000*%
%TD*%
%TA.AperFunction,SMDPad,CuDef*%
%ADD17RoundRect,0.150000X-0.150000X0.825000X-0.150000X-0.825000X0.150000X-0.825000X0.150000X0.825000X0*%
%TD*%
%TA.AperFunction,SMDPad,CuDef*%
%ADD18RoundRect,0.150000X0.150000X-0.587500X0.150000X0.587500X-0.150000X0.587500X-0.150000X-0.587500X0*%
%TD*%
%TA.AperFunction,ViaPad*%
%ADD19C,0.800000*%
%TD*%
%TA.AperFunction,Conductor*%
%ADD20C,0.200000*%
%TD*%
G04 APERTURE END LIST*
D10*
%TO.P,J6,1,Pin_1*%
%TO.N,+24V*%
X105500000Y-91500000D03*
D11*
%TO.P,J6,2,Pin_2*%
%TO.N,GNDPWR*%
X105500000Y-86500000D03*
%TD*%
D12*
%TO.P,R11,1*%
%TO.N,Net-(R11-Pad1)*%
X91122000Y-89662000D03*
%TO.P,R11,2*%
%TO.N,/ADC*%
X89472000Y-89662000D03*
%TD*%
D10*
%TO.P,J1,1,Pin_1*%
%TO.N,+24V*%
X105500000Y-81500000D03*
D11*
%TO.P,J1,2,Pin_2*%
%TO.N,Net-(J1-Pad2)*%
X105500000Y-76500000D03*
%TD*%
D10*
%TO.P,J3,1,Pin_1*%
%TO.N,+24V*%
X105500000Y-61495000D03*
D11*
%TO.P,J3,2,Pin_2*%
%TO.N,Net-(J3-Pad2)*%
X105500000Y-56495000D03*
%TD*%
D10*
%TO.P,J2,1,Pin_1*%
%TO.N,+24V*%
X105500000Y-71500000D03*
D11*
%TO.P,J2,2,Pin_2*%
%TO.N,Net-(J2-Pad2)*%
X105500000Y-66500000D03*
%TD*%
D13*
%TO.P,U8,1,+VS*%
%TO.N,+5V*%
X92377500Y-93533000D03*
%TO.P,U8,2,Vout*%
%TO.N,Net-(R11-Pad1)*%
X92377500Y-91633000D03*
%TO.P,U8,3,GND*%
%TO.N,GND*%
X90502500Y-92583000D03*
%TD*%
D14*
%TO.P,C7,1*%
%TO.N,+5V*%
X92710000Y-89675000D03*
%TO.P,C7,2*%
%TO.N,GND*%
X92710000Y-88125000D03*
%TD*%
D15*
%TO.P,J7,1,Pin_1*%
%TO.N,Net-(U1-Pad16)*%
X96975000Y-76500000D03*
D16*
%TO.P,J7,2,Pin_2*%
%TO.N,Net-(R5-Pad1)*%
X99515000Y-76500000D03*
%TD*%
D17*
%TO.P,U9,1,Vout*%
%TO.N,Net-(R11-Pad1)*%
X98044000Y-88076000D03*
%TO.P,U9,2,NC*%
%TO.N,unconnected-(U9-Pad2)*%
X96774000Y-88076000D03*
%TO.P,U9,3,NC*%
%TO.N,unconnected-(U9-Pad3)*%
X95504000Y-88076000D03*
%TO.P,U9,4,GND*%
%TO.N,GND*%
X94234000Y-88076000D03*
%TO.P,U9,5,NC*%
%TO.N,unconnected-(U9-Pad5)*%
X94234000Y-93026000D03*
%TO.P,U9,6,NC*%
%TO.N,unconnected-(U9-Pad6)*%
X95504000Y-93026000D03*
%TO.P,U9,7,NC*%
%TO.N,unconnected-(U9-Pad7)*%
X96774000Y-93026000D03*
%TO.P,U9,8,+VS*%
%TO.N,+5V*%
X98044000Y-93026000D03*
%TD*%
D18*
%TO.P,D1,1*%
%TO.N,/ADC*%
X89220000Y-87805500D03*
%TO.P,D1,2*%
%TO.N,unconnected-(D1-Pad2)*%
X91120000Y-87805500D03*
%TO.P,D1,3*%
%TO.N,+1V8*%
X90170000Y-85930500D03*
%TD*%
D10*
%TO.P,J4,1,Pin_1*%
%TO.N,+24V*%
X105500000Y-51500000D03*
D11*
%TO.P,J4,2,Pin_2*%
%TO.N,Net-(J4-Pad2)*%
X105500000Y-46500000D03*
%TD*%
D15*
%TO.P,J5,1,Pin_1*%
%TO.N,unconnected-(J5-Pad1)*%
X84435000Y-44480000D03*
D16*
%TO.P,J5,2,Pin_2*%
%TO.N,+5V*%
X86975000Y-44480000D03*
%TO.P,J5,3,Pin_3*%
%TO.N,unconnected-(J5-Pad3)*%
X84435000Y-47020000D03*
%TO.P,J5,4,Pin_4*%
%TO.N,+5V*%
X86975000Y-47020000D03*
%TO.P,J5,5,Pin_5*%
%TO.N,unconnected-(J5-Pad5)*%
X84435000Y-49560000D03*
%TO.P,J5,6,Pin_6*%
%TO.N,unconnected-(J5-Pad6)*%
X86975000Y-49560000D03*
%TO.P,J5,7,Pin_7*%
%TO.N,unconnected-(J5-Pad7)*%
X84435000Y-52100000D03*
%TO.P,J5,8,Pin_8*%
%TO.N,unconnected-(J5-Pad8)*%
X86975000Y-52100000D03*
%TO.P,J5,9,Pin_9*%
%TO.N,unconnected-(J5-Pad9)*%
X84435000Y-54640000D03*
%TO.P,J5,10,Pin_10*%
%TO.N,unconnected-(J5-Pad10)*%
X86975000Y-54640000D03*
%TO.P,J5,11,Pin_11*%
%TO.N,unconnected-(J5-Pad11)*%
X84435000Y-57180000D03*
%TO.P,J5,12,Pin_12*%
%TO.N,/SW3*%
X86975000Y-57180000D03*
%TO.P,J5,13,Pin_13*%
%TO.N,unconnected-(J5-Pad13)*%
X84435000Y-59720000D03*
%TO.P,J5,14,Pin_14*%
%TO.N,unconnected-(J5-Pad14)*%
X86975000Y-59720000D03*
%TO.P,J5,15,Pin_15*%
%TO.N,unconnected-(J5-Pad15)*%
X84435000Y-62260000D03*
%TO.P,J5,16,Pin_16*%
%TO.N,unconnected-(J5-Pad16)*%
X86975000Y-62260000D03*
%TO.P,J5,17,Pin_17*%
%TO.N,+3V3*%
X84435000Y-64800000D03*
%TO.P,J5,18,Pin_18*%
%TO.N,unconnected-(J5-Pad18)*%
X86975000Y-64800000D03*
%TO.P,J5,19,Pin_19*%
%TO.N,unconnected-(J5-Pad19)*%
X84435000Y-67340000D03*
%TO.P,J5,20,Pin_20*%
%TO.N,unconnected-(J5-Pad20)*%
X86975000Y-67340000D03*
%TO.P,J5,21,Pin_21*%
%TO.N,unconnected-(J5-Pad21)*%
X84435000Y-69880000D03*
%TO.P,J5,22,Pin_22*%
%TO.N,/SW2*%
X86975000Y-69880000D03*
%TO.P,J5,23,Pin_23*%
%TO.N,unconnected-(J5-Pad23)*%
X84435000Y-72420000D03*
%TO.P,J5,24,Pin_24*%
%TO.N,unconnected-(J5-Pad24)*%
X86975000Y-72420000D03*
%TO.P,J5,25,Pin_25*%
%TO.N,unconnected-(J5-Pad25)*%
X84435000Y-74960000D03*
%TO.P,J5,26,Pin_26*%
%TO.N,/SW1*%
X86975000Y-74960000D03*
%TO.P,J5,27,Pin_27*%
%TO.N,unconnected-(J5-Pad27)*%
X84435000Y-77500000D03*
%TO.P,J5,28,Pin_28*%
%TO.N,unconnected-(J5-Pad28)*%
X86975000Y-77500000D03*
%TO.P,J5,29,Pin_29*%
%TO.N,unconnected-(J5-Pad29)*%
X84435000Y-80040000D03*
%TO.P,J5,30,Pin_30*%
%TO.N,unconnected-(J5-Pad30)*%
X86975000Y-80040000D03*
%TO.P,J5,31,Pin_31*%
%TO.N,unconnected-(J5-Pad31)*%
X84435000Y-82580000D03*
%TO.P,J5,32,Pin_32*%
%TO.N,/SW0*%
X86975000Y-82580000D03*
%TO.P,J5,33,Pin_33*%
%TO.N,unconnected-(J5-Pad33)*%
X84435000Y-85120000D03*
%TO.P,J5,34,Pin_34*%
%TO.N,GND*%
X86975000Y-85120000D03*
%TO.P,J5,35,Pin_35*%
%TO.N,unconnected-(J5-Pad35)*%
X84435000Y-87660000D03*
%TO.P,J5,36,Pin_36*%
%TO.N,unconnected-(J5-Pad36)*%
X86975000Y-87660000D03*
%TO.P,J5,37,Pin_37*%
%TO.N,/ADC*%
X84435000Y-90200000D03*
%TO.P,J5,38,Pin_38*%
%TO.N,+1V8*%
X86975000Y-90200000D03*
%TO.P,J5,39,Pin_39*%
%TO.N,GND*%
X84435000Y-92740000D03*
%TO.P,J5,40,Pin_40*%
%TO.N,unconnected-(J5-Pad40)*%
X86975000Y-92740000D03*
%TD*%
D19*
%TO.N,+12V*%
X94200000Y-68649000D03*
X94100000Y-85300000D03*
X91440000Y-44196000D03*
X91415000Y-51046000D03*
X91415000Y-78596000D03*
X91415000Y-57946000D03*
%TO.N,Net-(R5-Pad1)*%
X93124500Y-81250000D03*
%TO.N,Net-(R6-Pad1)*%
X93091000Y-62992000D03*
X96393000Y-69885000D03*
%TO.N,Net-(R7-Pad1)*%
X96393000Y-67345000D03*
X93091000Y-56134000D03*
%TO.N,Net-(R8-Pad1)*%
X93091000Y-49276000D03*
X96393000Y-64805000D03*
%TD*%
D20*
%TO.N,+12V*%
X94200000Y-75550000D02*
X94200000Y-68649000D01*
X91415000Y-51046000D02*
X91415000Y-57946000D01*
X91440000Y-51021000D02*
X91415000Y-51046000D01*
X91415000Y-57946000D02*
X91415000Y-62815000D01*
X91415000Y-78596000D02*
X91415000Y-78335000D01*
X91415000Y-82615000D02*
X94100000Y-85300000D01*
X91415000Y-78335000D02*
X94200000Y-75550000D01*
X94200000Y-65600000D02*
X94200000Y-68649000D01*
X91440000Y-44196000D02*
X91440000Y-51021000D01*
X91415000Y-62815000D02*
X94200000Y-65600000D01*
X91415000Y-82615000D02*
X91415000Y-78241000D01*
%TO.N,GND*%
X91001000Y-84270000D02*
X92710000Y-85979000D01*
X90502500Y-92583000D02*
X90422000Y-92502500D01*
X94107000Y-86614000D02*
X94234000Y-86741000D01*
X94234000Y-86741000D02*
X94234000Y-88076000D01*
X89195500Y-93890000D02*
X90502500Y-92583000D01*
X85585000Y-93890000D02*
X89195500Y-93890000D01*
X92710000Y-85979000D02*
X92710000Y-86614000D01*
X86975000Y-85120000D02*
X87825000Y-84270000D01*
X84435000Y-92740000D02*
X85585000Y-93890000D01*
X87825000Y-84270000D02*
X91001000Y-84270000D01*
X92710000Y-88125000D02*
X92710000Y-86614000D01*
X92710000Y-86614000D02*
X94107000Y-86614000D01*
%TO.N,/ADC*%
X89220000Y-87805500D02*
X89220000Y-89410000D01*
X84435000Y-90200000D02*
X85675000Y-91440000D01*
X89220000Y-89410000D02*
X89472000Y-89662000D01*
X85675000Y-91440000D02*
X87694000Y-91440000D01*
X87694000Y-91440000D02*
X89472000Y-89662000D01*
%TO.N,+1V8*%
X86975000Y-90200000D02*
X88392000Y-88783000D01*
X88392000Y-88783000D02*
X88392000Y-86614000D01*
X88392000Y-86614000D02*
X89075500Y-85930500D01*
X89075500Y-85930500D02*
X90170000Y-85930500D01*
%TO.N,+5V*%
X86975000Y-44480000D02*
X86975000Y-47020000D01*
X91340000Y-91969396D02*
X92377500Y-93006896D01*
X92377500Y-93006896D02*
X92377500Y-93533000D01*
X91059000Y-85217000D02*
X90735000Y-84893000D01*
X85725000Y-85725000D02*
X85725000Y-48270000D01*
X91059000Y-86487000D02*
X90937604Y-86614000D01*
X98044000Y-93026000D02*
X98044000Y-92684604D01*
X92710000Y-89675000D02*
X91340000Y-91045000D01*
X91340000Y-91045000D02*
X91322893Y-91045000D01*
X92674396Y-92710000D02*
X92377500Y-93006896D01*
X90422000Y-87124000D02*
X91059000Y-86487000D01*
X85725000Y-48270000D02*
X86975000Y-47020000D01*
X92837000Y-92710000D02*
X92674396Y-92710000D01*
X90937604Y-86614000D02*
X90937604Y-86608396D01*
X88970000Y-84893000D02*
X87503000Y-86360000D01*
X90735000Y-84893000D02*
X88970000Y-84893000D01*
X91059000Y-86487000D02*
X91059000Y-85217000D01*
X86360000Y-86360000D02*
X85725000Y-85725000D01*
X90422000Y-90144107D02*
X90422000Y-87124000D01*
X91322893Y-91045000D02*
X90422000Y-90144107D01*
X98044000Y-92684604D02*
X97110396Y-91751000D01*
X87503000Y-86360000D02*
X86360000Y-86360000D01*
X97110396Y-91751000D02*
X93796000Y-91751000D01*
X90937604Y-86608396D02*
X91059000Y-86487000D01*
X93796000Y-91751000D02*
X92837000Y-92710000D01*
X91340000Y-91045000D02*
X91340000Y-91969396D01*
%TO.N,Net-(R5-Pad1)*%
X94765000Y-81250000D02*
X99515000Y-76500000D01*
X93124500Y-81250000D02*
X94765000Y-81250000D01*
%TO.N,Net-(R6-Pad1)*%
X96393000Y-69885000D02*
X95123000Y-68615000D01*
X95123000Y-68615000D02*
X95123000Y-65567000D01*
X95123000Y-66167000D02*
X95123000Y-63373000D01*
X95123000Y-63373000D02*
X94742000Y-62992000D01*
X94742000Y-62992000D02*
X93091000Y-62992000D01*
%TO.N,Net-(R7-Pad1)*%
X95123000Y-56134000D02*
X93091000Y-56134000D01*
X95631000Y-56642000D02*
X95123000Y-56134000D01*
X95631000Y-66583000D02*
X95631000Y-64424000D01*
X95631000Y-65024000D02*
X95631000Y-56642000D01*
X96393000Y-67345000D02*
X95631000Y-66583000D01*
%TO.N,Net-(R8-Pad1)*%
X95123000Y-49276000D02*
X93091000Y-49276000D01*
X96393000Y-64805000D02*
X96393000Y-50546000D01*
X96393000Y-50546000D02*
X95123000Y-49276000D01*
%TO.N,Net-(R11-Pad1)*%
X93980000Y-89789000D02*
X97790000Y-89789000D01*
X93726000Y-89535000D02*
X93980000Y-89789000D01*
X92377500Y-91633000D02*
X93152000Y-91633000D01*
X91122000Y-89662000D02*
X91859000Y-88925000D01*
X97790000Y-89789000D02*
X98044000Y-89535000D01*
X93152000Y-91633000D02*
X93726000Y-91059000D01*
X91859000Y-88925000D02*
X93177462Y-88925000D01*
X93726000Y-91059000D02*
X93726000Y-89535000D01*
X93726000Y-89473538D02*
X93726000Y-89535000D01*
X93177462Y-88925000D02*
X93726000Y-89473538D01*
X98044000Y-89535000D02*
X98044000Y-88076000D01*
%TD*%
%TA.AperFunction,Conductor*%
%TO.N,+24V*%
G36*
X109942121Y-49020002D02*
G01*
X109988614Y-49073658D01*
X110000000Y-49126000D01*
X110000000Y-93874000D01*
X109979998Y-93942121D01*
X109926342Y-93988614D01*
X109874000Y-94000000D01*
X102126000Y-94000000D01*
X102057879Y-93979998D01*
X102011386Y-93926342D01*
X102000000Y-93874000D01*
X102000000Y-92534669D01*
X103012001Y-92534669D01*
X103012371Y-92541490D01*
X103017895Y-92592352D01*
X103021521Y-92607604D01*
X103066676Y-92728054D01*
X103075214Y-92743649D01*
X103151715Y-92845724D01*
X103164276Y-92858285D01*
X103266351Y-92934786D01*
X103281946Y-92943324D01*
X103402394Y-92988478D01*
X103417649Y-92992105D01*
X103468514Y-92997631D01*
X103475328Y-92998000D01*
X105227885Y-92998000D01*
X105243124Y-92993525D01*
X105244329Y-92992135D01*
X105246000Y-92984452D01*
X105246000Y-92979884D01*
X105754000Y-92979884D01*
X105758475Y-92995123D01*
X105759865Y-92996328D01*
X105767548Y-92997999D01*
X107524669Y-92997999D01*
X107531490Y-92997629D01*
X107582352Y-92992105D01*
X107597604Y-92988479D01*
X107718054Y-92943324D01*
X107733649Y-92934786D01*
X107835724Y-92858285D01*
X107848285Y-92845724D01*
X107924786Y-92743649D01*
X107933324Y-92728054D01*
X107978478Y-92607606D01*
X107982105Y-92592351D01*
X107987631Y-92541486D01*
X107988000Y-92534672D01*
X107988000Y-91772115D01*
X107983525Y-91756876D01*
X107982135Y-91755671D01*
X107974452Y-91754000D01*
X105772115Y-91754000D01*
X105756876Y-91758475D01*
X105755671Y-91759865D01*
X105754000Y-91767548D01*
X105754000Y-92979884D01*
X105246000Y-92979884D01*
X105246000Y-91772115D01*
X105241525Y-91756876D01*
X105240135Y-91755671D01*
X105232452Y-91754000D01*
X103030116Y-91754000D01*
X103014877Y-91758475D01*
X103013672Y-91759865D01*
X103012001Y-91767548D01*
X103012001Y-92534669D01*
X102000000Y-92534669D01*
X102000000Y-91227885D01*
X103012000Y-91227885D01*
X103016475Y-91243124D01*
X103017865Y-91244329D01*
X103025548Y-91246000D01*
X105227885Y-91246000D01*
X105243124Y-91241525D01*
X105244329Y-91240135D01*
X105246000Y-91232452D01*
X105246000Y-91227885D01*
X105754000Y-91227885D01*
X105758475Y-91243124D01*
X105759865Y-91244329D01*
X105767548Y-91246000D01*
X107969884Y-91246000D01*
X107985123Y-91241525D01*
X107986328Y-91240135D01*
X107987999Y-91232452D01*
X107987999Y-90465331D01*
X107987629Y-90458510D01*
X107982105Y-90407648D01*
X107978479Y-90392396D01*
X107933324Y-90271946D01*
X107924786Y-90256351D01*
X107848285Y-90154276D01*
X107835724Y-90141715D01*
X107733649Y-90065214D01*
X107718054Y-90056676D01*
X107597606Y-90011522D01*
X107582351Y-90007895D01*
X107531486Y-90002369D01*
X107524672Y-90002000D01*
X105772115Y-90002000D01*
X105756876Y-90006475D01*
X105755671Y-90007865D01*
X105754000Y-90015548D01*
X105754000Y-91227885D01*
X105246000Y-91227885D01*
X105246000Y-90020116D01*
X105241525Y-90004877D01*
X105240135Y-90003672D01*
X105232452Y-90002001D01*
X103475331Y-90002001D01*
X103468510Y-90002371D01*
X103417648Y-90007895D01*
X103402396Y-90011521D01*
X103281946Y-90056676D01*
X103266351Y-90065214D01*
X103164276Y-90141715D01*
X103151715Y-90154276D01*
X103075214Y-90256351D01*
X103066676Y-90271946D01*
X103021522Y-90392394D01*
X103017895Y-90407649D01*
X103012369Y-90458514D01*
X103012000Y-90465328D01*
X103012000Y-91227885D01*
X102000000Y-91227885D01*
X102000000Y-86539249D01*
X103261087Y-86539249D01*
X103287775Y-86759792D01*
X103353097Y-86972123D01*
X103355667Y-86977103D01*
X103355669Y-86977107D01*
X103422515Y-87106619D01*
X103454987Y-87169532D01*
X103590225Y-87345777D01*
X103594370Y-87349548D01*
X103594373Y-87349552D01*
X103738262Y-87480481D01*
X103754535Y-87495288D01*
X103869261Y-87567255D01*
X103937969Y-87610356D01*
X103937973Y-87610358D01*
X103942725Y-87613339D01*
X104148846Y-87696199D01*
X104366383Y-87741249D01*
X104370994Y-87741515D01*
X104370995Y-87741515D01*
X104420942Y-87744395D01*
X104420946Y-87744395D01*
X104422765Y-87744500D01*
X106546360Y-87744500D01*
X106549147Y-87744251D01*
X106549153Y-87744251D01*
X106618317Y-87738078D01*
X106711273Y-87729782D01*
X106925551Y-87671162D01*
X106930609Y-87668750D01*
X106930613Y-87668748D01*
X107120996Y-87577940D01*
X107120998Y-87577939D01*
X107126063Y-87575523D01*
X107306469Y-87445888D01*
X107403483Y-87345777D01*
X107457164Y-87290383D01*
X107457166Y-87290381D01*
X107461067Y-87286355D01*
X107504304Y-87222012D01*
X107581845Y-87106619D01*
X107581848Y-87106613D01*
X107584971Y-87101966D01*
X107674265Y-86898549D01*
X107726125Y-86682535D01*
X107738913Y-86460751D01*
X107712225Y-86240208D01*
X107646903Y-86027877D01*
X107579887Y-85898034D01*
X107547584Y-85835449D01*
X107547583Y-85835448D01*
X107545013Y-85830468D01*
X107409775Y-85654223D01*
X107405630Y-85650452D01*
X107405627Y-85650448D01*
X107249618Y-85508491D01*
X107245465Y-85504712D01*
X107113706Y-85422060D01*
X107062031Y-85389644D01*
X107062027Y-85389642D01*
X107057275Y-85386661D01*
X106851154Y-85303801D01*
X106633617Y-85258751D01*
X106629006Y-85258485D01*
X106629005Y-85258485D01*
X106579058Y-85255605D01*
X106579054Y-85255605D01*
X106577235Y-85255500D01*
X104453640Y-85255500D01*
X104450853Y-85255749D01*
X104450847Y-85255749D01*
X104381683Y-85261922D01*
X104288727Y-85270218D01*
X104074449Y-85328838D01*
X104069391Y-85331250D01*
X104069387Y-85331252D01*
X103957610Y-85384567D01*
X103873937Y-85424477D01*
X103693531Y-85554112D01*
X103689626Y-85558142D01*
X103592204Y-85658674D01*
X103538933Y-85713645D01*
X103535806Y-85718299D01*
X103418155Y-85893381D01*
X103418152Y-85893387D01*
X103415029Y-85898034D01*
X103325735Y-86101451D01*
X103273875Y-86317465D01*
X103261087Y-86539249D01*
X102000000Y-86539249D01*
X102000000Y-82534669D01*
X103012001Y-82534669D01*
X103012371Y-82541490D01*
X103017895Y-82592352D01*
X103021521Y-82607604D01*
X103066676Y-82728054D01*
X103075214Y-82743649D01*
X103151715Y-82845724D01*
X103164276Y-82858285D01*
X103266351Y-82934786D01*
X103281946Y-82943324D01*
X103402394Y-82988478D01*
X103417649Y-82992105D01*
X103468514Y-82997631D01*
X103475328Y-82998000D01*
X105227885Y-82998000D01*
X105243124Y-82993525D01*
X105244329Y-82992135D01*
X105246000Y-82984452D01*
X105246000Y-82979884D01*
X105754000Y-82979884D01*
X105758475Y-82995123D01*
X105759865Y-82996328D01*
X105767548Y-82997999D01*
X107524669Y-82997999D01*
X107531490Y-82997629D01*
X107582352Y-82992105D01*
X107597604Y-82988479D01*
X107718054Y-82943324D01*
X107733649Y-82934786D01*
X107835724Y-82858285D01*
X107848285Y-82845724D01*
X107924786Y-82743649D01*
X107933324Y-82728054D01*
X107978478Y-82607606D01*
X107982105Y-82592351D01*
X107987631Y-82541486D01*
X107988000Y-82534672D01*
X107988000Y-81772115D01*
X107983525Y-81756876D01*
X107982135Y-81755671D01*
X107974452Y-81754000D01*
X105772115Y-81754000D01*
X105756876Y-81758475D01*
X105755671Y-81759865D01*
X105754000Y-81767548D01*
X105754000Y-82979884D01*
X105246000Y-82979884D01*
X105246000Y-81772115D01*
X105241525Y-81756876D01*
X105240135Y-81755671D01*
X105232452Y-81754000D01*
X103030116Y-81754000D01*
X103014877Y-81758475D01*
X103013672Y-81759865D01*
X103012001Y-81767548D01*
X103012001Y-82534669D01*
X102000000Y-82534669D01*
X102000000Y-81227885D01*
X103012000Y-81227885D01*
X103016475Y-81243124D01*
X103017865Y-81244329D01*
X103025548Y-81246000D01*
X105227885Y-81246000D01*
X105243124Y-81241525D01*
X105244329Y-81240135D01*
X105246000Y-81232452D01*
X105246000Y-81227885D01*
X105754000Y-81227885D01*
X105758475Y-81243124D01*
X105759865Y-81244329D01*
X105767548Y-81246000D01*
X107969884Y-81246000D01*
X107985123Y-81241525D01*
X107986328Y-81240135D01*
X107987999Y-81232452D01*
X107987999Y-80465331D01*
X107987629Y-80458510D01*
X107982105Y-80407648D01*
X107978479Y-80392396D01*
X107933324Y-80271946D01*
X107924786Y-80256351D01*
X107848285Y-80154276D01*
X107835724Y-80141715D01*
X107733649Y-80065214D01*
X107718054Y-80056676D01*
X107597606Y-80011522D01*
X107582351Y-80007895D01*
X107531486Y-80002369D01*
X107524672Y-80002000D01*
X105772115Y-80002000D01*
X105756876Y-80006475D01*
X105755671Y-80007865D01*
X105754000Y-80015548D01*
X105754000Y-81227885D01*
X105246000Y-81227885D01*
X105246000Y-80020116D01*
X105241525Y-80004877D01*
X105240135Y-80003672D01*
X105232452Y-80002001D01*
X103475331Y-80002001D01*
X103468510Y-80002371D01*
X103417648Y-80007895D01*
X103402396Y-80011521D01*
X103281946Y-80056676D01*
X103266351Y-80065214D01*
X103164276Y-80141715D01*
X103151715Y-80154276D01*
X103075214Y-80256351D01*
X103066676Y-80271946D01*
X103021522Y-80392394D01*
X103017895Y-80407649D01*
X103012369Y-80458514D01*
X103012000Y-80465328D01*
X103012000Y-81227885D01*
X102000000Y-81227885D01*
X102000000Y-76539249D01*
X103261087Y-76539249D01*
X103287775Y-76759792D01*
X103353097Y-76972123D01*
X103355667Y-76977103D01*
X103355669Y-76977107D01*
X103422515Y-77106619D01*
X103454987Y-77169532D01*
X103590225Y-77345777D01*
X103594370Y-77349548D01*
X103594373Y-77349552D01*
X103732032Y-77474812D01*
X103754535Y-77495288D01*
X103849632Y-77554942D01*
X103937969Y-77610356D01*
X103937973Y-77610358D01*
X103942725Y-77613339D01*
X104148846Y-77696199D01*
X104366383Y-77741249D01*
X104370994Y-77741515D01*
X104370995Y-77741515D01*
X104420942Y-77744395D01*
X104420946Y-77744395D01*
X104422765Y-77744500D01*
X106546360Y-77744500D01*
X106549147Y-77744251D01*
X106549153Y-77744251D01*
X106618317Y-77738078D01*
X106711273Y-77729782D01*
X106925551Y-77671162D01*
X106930609Y-77668750D01*
X106930613Y-77668748D01*
X107120996Y-77577940D01*
X107120998Y-77577939D01*
X107126063Y-77575523D01*
X107130625Y-77572245D01*
X107301909Y-77449165D01*
X107301911Y-77449163D01*
X107306469Y-77445888D01*
X107403483Y-77345777D01*
X107457164Y-77290383D01*
X107457166Y-77290381D01*
X107461067Y-77286355D01*
X107505394Y-77220389D01*
X107581845Y-77106619D01*
X107581848Y-77106613D01*
X107584971Y-77101966D01*
X107674265Y-76898549D01*
X107726125Y-76682535D01*
X107738913Y-76460751D01*
X107712225Y-76240208D01*
X107646903Y-76027877D01*
X107579887Y-75898034D01*
X107547584Y-75835449D01*
X107547583Y-75835448D01*
X107545013Y-75830468D01*
X107409775Y-75654223D01*
X107405630Y-75650452D01*
X107405627Y-75650448D01*
X107249618Y-75508491D01*
X107245465Y-75504712D01*
X107113706Y-75422060D01*
X107062031Y-75389644D01*
X107062027Y-75389642D01*
X107057275Y-75386661D01*
X106851154Y-75303801D01*
X106633617Y-75258751D01*
X106629006Y-75258485D01*
X106629005Y-75258485D01*
X106579058Y-75255605D01*
X106579054Y-75255605D01*
X106577235Y-75255500D01*
X104453640Y-75255500D01*
X104450853Y-75255749D01*
X104450847Y-75255749D01*
X104381683Y-75261922D01*
X104288727Y-75270218D01*
X104074449Y-75328838D01*
X104069391Y-75331250D01*
X104069387Y-75331252D01*
X103879004Y-75422060D01*
X103873937Y-75424477D01*
X103693531Y-75554112D01*
X103689626Y-75558142D01*
X103592204Y-75658674D01*
X103538933Y-75713645D01*
X103509276Y-75757779D01*
X103418155Y-75893381D01*
X103418152Y-75893387D01*
X103415029Y-75898034D01*
X103325735Y-76101451D01*
X103273875Y-76317465D01*
X103261087Y-76539249D01*
X102000000Y-76539249D01*
X102000000Y-72534669D01*
X103012001Y-72534669D01*
X103012371Y-72541490D01*
X103017895Y-72592352D01*
X103021521Y-72607604D01*
X103066676Y-72728054D01*
X103075214Y-72743649D01*
X103151715Y-72845724D01*
X103164276Y-72858285D01*
X103266351Y-72934786D01*
X103281946Y-72943324D01*
X103402394Y-72988478D01*
X103417649Y-72992105D01*
X103468514Y-72997631D01*
X103475328Y-72998000D01*
X105227885Y-72998000D01*
X105243124Y-72993525D01*
X105244329Y-72992135D01*
X105246000Y-72984452D01*
X105246000Y-72979884D01*
X105754000Y-72979884D01*
X105758475Y-72995123D01*
X105759865Y-72996328D01*
X105767548Y-72997999D01*
X107524669Y-72997999D01*
X107531490Y-72997629D01*
X107582352Y-72992105D01*
X107597604Y-72988479D01*
X107718054Y-72943324D01*
X107733649Y-72934786D01*
X107835724Y-72858285D01*
X107848285Y-72845724D01*
X107924786Y-72743649D01*
X107933324Y-72728054D01*
X107978478Y-72607606D01*
X107982105Y-72592351D01*
X107987631Y-72541486D01*
X107988000Y-72534672D01*
X107988000Y-71772115D01*
X107983525Y-71756876D01*
X107982135Y-71755671D01*
X107974452Y-71754000D01*
X105772115Y-71754000D01*
X105756876Y-71758475D01*
X105755671Y-71759865D01*
X105754000Y-71767548D01*
X105754000Y-72979884D01*
X105246000Y-72979884D01*
X105246000Y-71772115D01*
X105241525Y-71756876D01*
X105240135Y-71755671D01*
X105232452Y-71754000D01*
X103030116Y-71754000D01*
X103014877Y-71758475D01*
X103013672Y-71759865D01*
X103012001Y-71767548D01*
X103012001Y-72534669D01*
X102000000Y-72534669D01*
X102000000Y-71227885D01*
X103012000Y-71227885D01*
X103016475Y-71243124D01*
X103017865Y-71244329D01*
X103025548Y-71246000D01*
X105227885Y-71246000D01*
X105243124Y-71241525D01*
X105244329Y-71240135D01*
X105246000Y-71232452D01*
X105246000Y-71227885D01*
X105754000Y-71227885D01*
X105758475Y-71243124D01*
X105759865Y-71244329D01*
X105767548Y-71246000D01*
X107969884Y-71246000D01*
X107985123Y-71241525D01*
X107986328Y-71240135D01*
X107987999Y-71232452D01*
X107987999Y-70465331D01*
X107987629Y-70458510D01*
X107982105Y-70407648D01*
X107978479Y-70392396D01*
X107933324Y-70271946D01*
X107924786Y-70256351D01*
X107848285Y-70154276D01*
X107835724Y-70141715D01*
X107733649Y-70065214D01*
X107718054Y-70056676D01*
X107597606Y-70011522D01*
X107582351Y-70007895D01*
X107531486Y-70002369D01*
X107524672Y-70002000D01*
X105772115Y-70002000D01*
X105756876Y-70006475D01*
X105755671Y-70007865D01*
X105754000Y-70015548D01*
X105754000Y-71227885D01*
X105246000Y-71227885D01*
X105246000Y-70020116D01*
X105241525Y-70004877D01*
X105240135Y-70003672D01*
X105232452Y-70002001D01*
X103475331Y-70002001D01*
X103468510Y-70002371D01*
X103417648Y-70007895D01*
X103402396Y-70011521D01*
X103281946Y-70056676D01*
X103266351Y-70065214D01*
X103164276Y-70141715D01*
X103151715Y-70154276D01*
X103075214Y-70256351D01*
X103066676Y-70271946D01*
X103021522Y-70392394D01*
X103017895Y-70407649D01*
X103012369Y-70458514D01*
X103012000Y-70465328D01*
X103012000Y-71227885D01*
X102000000Y-71227885D01*
X102000000Y-66539249D01*
X103261087Y-66539249D01*
X103287775Y-66759792D01*
X103353097Y-66972123D01*
X103355667Y-66977103D01*
X103355669Y-66977107D01*
X103422515Y-67106619D01*
X103454987Y-67169532D01*
X103590225Y-67345777D01*
X103594370Y-67349548D01*
X103594373Y-67349552D01*
X103738262Y-67480481D01*
X103754535Y-67495288D01*
X103869261Y-67567255D01*
X103937969Y-67610356D01*
X103937973Y-67610358D01*
X103942725Y-67613339D01*
X104148846Y-67696199D01*
X104366383Y-67741249D01*
X104370994Y-67741515D01*
X104370995Y-67741515D01*
X104420942Y-67744395D01*
X104420946Y-67744395D01*
X104422765Y-67744500D01*
X106546360Y-67744500D01*
X106549147Y-67744251D01*
X106549153Y-67744251D01*
X106618317Y-67738078D01*
X106711273Y-67729782D01*
X106925551Y-67671162D01*
X106930609Y-67668750D01*
X106930613Y-67668748D01*
X107120996Y-67577940D01*
X107120998Y-67577939D01*
X107126063Y-67575523D01*
X107306469Y-67445888D01*
X107403483Y-67345777D01*
X107457164Y-67290383D01*
X107457166Y-67290381D01*
X107461067Y-67286355D01*
X107504304Y-67222012D01*
X107581845Y-67106619D01*
X107581848Y-67106613D01*
X107584971Y-67101966D01*
X107674265Y-66898549D01*
X107726125Y-66682535D01*
X107738913Y-66460751D01*
X107712225Y-66240208D01*
X107646903Y-66027877D01*
X107579887Y-65898034D01*
X107547584Y-65835449D01*
X107547583Y-65835448D01*
X107545013Y-65830468D01*
X107409775Y-65654223D01*
X107405630Y-65650452D01*
X107405627Y-65650448D01*
X107249618Y-65508491D01*
X107245465Y-65504712D01*
X107113706Y-65422060D01*
X107062031Y-65389644D01*
X107062027Y-65389642D01*
X107057275Y-65386661D01*
X106851154Y-65303801D01*
X106633617Y-65258751D01*
X106629006Y-65258485D01*
X106629005Y-65258485D01*
X106579058Y-65255605D01*
X106579054Y-65255605D01*
X106577235Y-65255500D01*
X104453640Y-65255500D01*
X104450853Y-65255749D01*
X104450847Y-65255749D01*
X104381683Y-65261922D01*
X104288727Y-65270218D01*
X104074449Y-65328838D01*
X104069391Y-65331250D01*
X104069387Y-65331252D01*
X103957610Y-65384567D01*
X103873937Y-65424477D01*
X103693531Y-65554112D01*
X103689626Y-65558142D01*
X103592204Y-65658674D01*
X103538933Y-65713645D01*
X103535806Y-65718299D01*
X103418155Y-65893381D01*
X103418152Y-65893387D01*
X103415029Y-65898034D01*
X103325735Y-66101451D01*
X103273875Y-66317465D01*
X103261087Y-66539249D01*
X102000000Y-66539249D01*
X102000000Y-62529669D01*
X103012001Y-62529669D01*
X103012371Y-62536490D01*
X103017895Y-62587352D01*
X103021521Y-62602604D01*
X103066676Y-62723054D01*
X103075214Y-62738649D01*
X103151715Y-62840724D01*
X103164276Y-62853285D01*
X103266351Y-62929786D01*
X103281946Y-62938324D01*
X103402394Y-62983478D01*
X103417649Y-62987105D01*
X103468514Y-62992631D01*
X103475328Y-62993000D01*
X105227885Y-62993000D01*
X105243124Y-62988525D01*
X105244329Y-62987135D01*
X105246000Y-62979452D01*
X105246000Y-62974884D01*
X105754000Y-62974884D01*
X105758475Y-62990123D01*
X105759865Y-62991328D01*
X105767548Y-62992999D01*
X107524669Y-62992999D01*
X107531490Y-62992629D01*
X107582352Y-62987105D01*
X107597604Y-62983479D01*
X107718054Y-62938324D01*
X107733649Y-62929786D01*
X107835724Y-62853285D01*
X107848285Y-62840724D01*
X107924786Y-62738649D01*
X107933324Y-62723054D01*
X107978478Y-62602606D01*
X107982105Y-62587351D01*
X107987631Y-62536486D01*
X107988000Y-62529672D01*
X107988000Y-61767115D01*
X107983525Y-61751876D01*
X107982135Y-61750671D01*
X107974452Y-61749000D01*
X105772115Y-61749000D01*
X105756876Y-61753475D01*
X105755671Y-61754865D01*
X105754000Y-61762548D01*
X105754000Y-62974884D01*
X105246000Y-62974884D01*
X105246000Y-61767115D01*
X105241525Y-61751876D01*
X105240135Y-61750671D01*
X105232452Y-61749000D01*
X103030116Y-61749000D01*
X103014877Y-61753475D01*
X103013672Y-61754865D01*
X103012001Y-61762548D01*
X103012001Y-62529669D01*
X102000000Y-62529669D01*
X102000000Y-61222885D01*
X103012000Y-61222885D01*
X103016475Y-61238124D01*
X103017865Y-61239329D01*
X103025548Y-61241000D01*
X105227885Y-61241000D01*
X105243124Y-61236525D01*
X105244329Y-61235135D01*
X105246000Y-61227452D01*
X105246000Y-61222885D01*
X105754000Y-61222885D01*
X105758475Y-61238124D01*
X105759865Y-61239329D01*
X105767548Y-61241000D01*
X107969884Y-61241000D01*
X107985123Y-61236525D01*
X107986328Y-61235135D01*
X107987999Y-61227452D01*
X107987999Y-60460331D01*
X107987629Y-60453510D01*
X107982105Y-60402648D01*
X107978479Y-60387396D01*
X107933324Y-60266946D01*
X107924786Y-60251351D01*
X107848285Y-60149276D01*
X107835724Y-60136715D01*
X107733649Y-60060214D01*
X107718054Y-60051676D01*
X107597606Y-60006522D01*
X107582351Y-60002895D01*
X107531486Y-59997369D01*
X107524672Y-59997000D01*
X105772115Y-59997000D01*
X105756876Y-60001475D01*
X105755671Y-60002865D01*
X105754000Y-60010548D01*
X105754000Y-61222885D01*
X105246000Y-61222885D01*
X105246000Y-60015116D01*
X105241525Y-59999877D01*
X105240135Y-59998672D01*
X105232452Y-59997001D01*
X103475331Y-59997001D01*
X103468510Y-59997371D01*
X103417648Y-60002895D01*
X103402396Y-60006521D01*
X103281946Y-60051676D01*
X103266351Y-60060214D01*
X103164276Y-60136715D01*
X103151715Y-60149276D01*
X103075214Y-60251351D01*
X103066676Y-60266946D01*
X103021522Y-60387394D01*
X103017895Y-60402649D01*
X103012369Y-60453514D01*
X103012000Y-60460328D01*
X103012000Y-61222885D01*
X102000000Y-61222885D01*
X102000000Y-56534249D01*
X103261087Y-56534249D01*
X103287775Y-56754792D01*
X103353097Y-56967123D01*
X103355667Y-56972103D01*
X103355669Y-56972107D01*
X103422515Y-57101619D01*
X103454987Y-57164532D01*
X103590225Y-57340777D01*
X103594370Y-57344548D01*
X103594373Y-57344552D01*
X103738262Y-57475481D01*
X103754535Y-57490288D01*
X103869261Y-57562255D01*
X103937969Y-57605356D01*
X103937973Y-57605358D01*
X103942725Y-57608339D01*
X104148846Y-57691199D01*
X104366383Y-57736249D01*
X104370994Y-57736515D01*
X104370995Y-57736515D01*
X104420942Y-57739395D01*
X104420946Y-57739395D01*
X104422765Y-57739500D01*
X106546360Y-57739500D01*
X106549147Y-57739251D01*
X106549153Y-57739251D01*
X106618317Y-57733078D01*
X106711273Y-57724782D01*
X106925551Y-57666162D01*
X106930609Y-57663750D01*
X106930613Y-57663748D01*
X107120996Y-57572940D01*
X107120998Y-57572939D01*
X107126063Y-57570523D01*
X107306469Y-57440888D01*
X107403483Y-57340777D01*
X107457164Y-57285383D01*
X107457166Y-57285381D01*
X107461067Y-57281355D01*
X107504304Y-57217012D01*
X107581845Y-57101619D01*
X107581848Y-57101613D01*
X107584971Y-57096966D01*
X107674265Y-56893549D01*
X107726125Y-56677535D01*
X107738913Y-56455751D01*
X107712225Y-56235208D01*
X107646903Y-56022877D01*
X107579887Y-55893034D01*
X107547584Y-55830449D01*
X107547583Y-55830448D01*
X107545013Y-55825468D01*
X107409775Y-55649223D01*
X107405630Y-55645452D01*
X107405627Y-55645448D01*
X107249618Y-55503491D01*
X107245465Y-55499712D01*
X107113706Y-55417060D01*
X107062031Y-55384644D01*
X107062027Y-55384642D01*
X107057275Y-55381661D01*
X106851154Y-55298801D01*
X106633617Y-55253751D01*
X106629006Y-55253485D01*
X106629005Y-55253485D01*
X106579058Y-55250605D01*
X106579054Y-55250605D01*
X106577235Y-55250500D01*
X104453640Y-55250500D01*
X104450853Y-55250749D01*
X104450847Y-55250749D01*
X104381683Y-55256922D01*
X104288727Y-55265218D01*
X104074449Y-55323838D01*
X104069391Y-55326250D01*
X104069387Y-55326252D01*
X103957610Y-55379567D01*
X103873937Y-55419477D01*
X103693531Y-55549112D01*
X103689626Y-55553142D01*
X103592204Y-55653674D01*
X103538933Y-55708645D01*
X103535806Y-55713299D01*
X103418155Y-55888381D01*
X103418152Y-55888387D01*
X103415029Y-55893034D01*
X103325735Y-56096451D01*
X103273875Y-56312465D01*
X103261087Y-56534249D01*
X102000000Y-56534249D01*
X102000000Y-52534669D01*
X103012001Y-52534669D01*
X103012371Y-52541490D01*
X103017895Y-52592352D01*
X103021521Y-52607604D01*
X103066676Y-52728054D01*
X103075214Y-52743649D01*
X103151715Y-52845724D01*
X103164276Y-52858285D01*
X103266351Y-52934786D01*
X103281946Y-52943324D01*
X103402394Y-52988478D01*
X103417649Y-52992105D01*
X103468514Y-52997631D01*
X103475328Y-52998000D01*
X105227885Y-52998000D01*
X105243124Y-52993525D01*
X105244329Y-52992135D01*
X105246000Y-52984452D01*
X105246000Y-52979884D01*
X105754000Y-52979884D01*
X105758475Y-52995123D01*
X105759865Y-52996328D01*
X105767548Y-52997999D01*
X107524669Y-52997999D01*
X107531490Y-52997629D01*
X107582352Y-52992105D01*
X107597604Y-52988479D01*
X107718054Y-52943324D01*
X107733649Y-52934786D01*
X107835724Y-52858285D01*
X107848285Y-52845724D01*
X107924786Y-52743649D01*
X107933324Y-52728054D01*
X107978478Y-52607606D01*
X107982105Y-52592351D01*
X107987631Y-52541486D01*
X107988000Y-52534672D01*
X107988000Y-51772115D01*
X107983525Y-51756876D01*
X107982135Y-51755671D01*
X107974452Y-51754000D01*
X105772115Y-51754000D01*
X105756876Y-51758475D01*
X105755671Y-51759865D01*
X105754000Y-51767548D01*
X105754000Y-52979884D01*
X105246000Y-52979884D01*
X105246000Y-51772115D01*
X105241525Y-51756876D01*
X105240135Y-51755671D01*
X105232452Y-51754000D01*
X103030116Y-51754000D01*
X103014877Y-51758475D01*
X103013672Y-51759865D01*
X103012001Y-51767548D01*
X103012001Y-52534669D01*
X102000000Y-52534669D01*
X102000000Y-51227885D01*
X103012000Y-51227885D01*
X103016475Y-51243124D01*
X103017865Y-51244329D01*
X103025548Y-51246000D01*
X105227885Y-51246000D01*
X105243124Y-51241525D01*
X105244329Y-51240135D01*
X105246000Y-51232452D01*
X105246000Y-51227885D01*
X105754000Y-51227885D01*
X105758475Y-51243124D01*
X105759865Y-51244329D01*
X105767548Y-51246000D01*
X107969884Y-51246000D01*
X107985123Y-51241525D01*
X107986328Y-51240135D01*
X107987999Y-51232452D01*
X107987999Y-50465331D01*
X107987629Y-50458510D01*
X107982105Y-50407648D01*
X107978479Y-50392396D01*
X107933324Y-50271946D01*
X107924786Y-50256351D01*
X107848285Y-50154276D01*
X107835724Y-50141715D01*
X107733649Y-50065214D01*
X107718054Y-50056676D01*
X107597606Y-50011522D01*
X107582351Y-50007895D01*
X107531486Y-50002369D01*
X107524672Y-50002000D01*
X105772115Y-50002000D01*
X105756876Y-50006475D01*
X105755671Y-50007865D01*
X105754000Y-50015548D01*
X105754000Y-51227885D01*
X105246000Y-51227885D01*
X105246000Y-50020116D01*
X105241525Y-50004877D01*
X105240135Y-50003672D01*
X105232452Y-50002001D01*
X103475331Y-50002001D01*
X103468510Y-50002371D01*
X103417648Y-50007895D01*
X103402396Y-50011521D01*
X103281946Y-50056676D01*
X103266351Y-50065214D01*
X103164276Y-50141715D01*
X103151715Y-50154276D01*
X103075214Y-50256351D01*
X103066676Y-50271946D01*
X103021522Y-50392394D01*
X103017895Y-50407649D01*
X103012369Y-50458514D01*
X103012000Y-50465328D01*
X103012000Y-51227885D01*
X102000000Y-51227885D01*
X102000000Y-49126000D01*
X102020002Y-49057879D01*
X102073658Y-49011386D01*
X102126000Y-49000000D01*
X109874000Y-49000000D01*
X109942121Y-49020002D01*
G37*
%TD.AperFunction*%
%TD*%
M02*
