M48
INCH,TZ
T1C0.0157
T2C0.0394
T3C0.0520
%
G90
G05
T1
X35990Y-20097
X35990Y-22813
X35990Y-30943
X36000Y-17400
X36650Y-19400
X36650Y-22100
X36650Y-24800
X36663Y-31988
X37047Y-33583
X37087Y-27027
X37950Y-25514
X37950Y-26514
X37950Y-27514
T2
X33242Y-17512
X33242Y-18512
X33242Y-19512
X33242Y-20512
X33242Y-21512
X33242Y-22512
X33242Y-23512
X33242Y-24512
X33242Y-25512
X33242Y-26512
X33242Y-27512
X33242Y-28512
X33242Y-29512
X33242Y-30512
X33242Y-31512
X33242Y-32512
X33242Y-33512
X33242Y-34512
X33242Y-35512
X33242Y-36512
X34242Y-17512
X34242Y-18512
X34242Y-19512
X34242Y-20512
X34242Y-21512
X34242Y-22512
X34242Y-23512
X34242Y-24512
X34242Y-25512
X34242Y-26512
X34242Y-27512
X34242Y-28512
X34242Y-29512
X34242Y-30512
X34242Y-31512
X34242Y-32512
X34242Y-33512
X34242Y-34512
X34242Y-35512
X34242Y-36512
X38179Y-30118
X39179Y-30118
T3
X41535Y-18307
X41535Y-20276
X41535Y-22242
X41535Y-24211
X41535Y-26181
X41535Y-28150
X41535Y-30118
X41535Y-32087
X41535Y-34055
X41535Y-36024
T0
M30
