%TF.GenerationSoftware,KiCad,Pcbnew,(6.0.9)*%
%TF.CreationDate,2022-11-25T17:28:49+01:00*%
%TF.ProjectId,gpio_isolated_switches,6770696f-5f69-4736-9f6c-617465645f73,rev?*%
%TF.SameCoordinates,Original*%
%TF.FileFunction,Soldermask,Top*%
%TF.FilePolarity,Negative*%
%FSLAX46Y46*%
G04 Gerber Fmt 4.6, Leading zero omitted, Abs format (unit mm)*
G04 Created by KiCad (PCBNEW (6.0.9)) date 2022-11-25 17:28:49*
%MOMM*%
%LPD*%
G01*
G04 APERTURE LIST*
G04 Aperture macros list*
%AMRoundRect*
0 Rectangle with rounded corners*
0 $1 Rounding radius*
0 $2 $3 $4 $5 $6 $7 $8 $9 X,Y pos of 4 corners*
0 Add a 4 corners polygon primitive as box body*
4,1,4,$2,$3,$4,$5,$6,$7,$8,$9,$2,$3,0*
0 Add four circle primitives for the rounded corners*
1,1,$1+$1,$2,$3*
1,1,$1+$1,$4,$5*
1,1,$1+$1,$6,$7*
1,1,$1+$1,$8,$9*
0 Add four rect primitives between the rounded corners*
20,1,$1+$1,$2,$3,$4,$5,0*
20,1,$1+$1,$4,$5,$6,$7,0*
20,1,$1+$1,$6,$7,$8,$9,0*
20,1,$1+$1,$8,$9,$2,$3,0*%
G04 Aperture macros list end*
%ADD10R,1.700000X1.700000*%
%ADD11O,1.700000X1.700000*%
%ADD12R,3.960000X1.980000*%
%ADD13O,3.960000X1.980000*%
%ADD14RoundRect,0.200000X0.200000X0.275000X-0.200000X0.275000X-0.200000X-0.275000X0.200000X-0.275000X0*%
%ADD15RoundRect,0.150000X0.587500X0.150000X-0.587500X0.150000X-0.587500X-0.150000X0.587500X-0.150000X0*%
%ADD16RoundRect,0.225000X0.250000X-0.225000X0.250000X0.225000X-0.250000X0.225000X-0.250000X-0.225000X0*%
%ADD17RoundRect,0.150000X-0.150000X0.825000X-0.150000X-0.825000X0.150000X-0.825000X0.150000X0.825000X0*%
%ADD18RoundRect,0.150000X0.150000X-0.587500X0.150000X0.587500X-0.150000X0.587500X-0.150000X-0.587500X0*%
G04 APERTURE END LIST*
D10*
%TO.C,J7*%
X98750000Y-77750000D03*
D11*
X98750000Y-80290000D03*
%TD*%
D12*
%TO.C,J6*%
X105500000Y-91500000D03*
D13*
X105500000Y-86500000D03*
%TD*%
D14*
%TO.C,R11*%
X91122000Y-89662000D03*
X89472000Y-89662000D03*
%TD*%
D12*
%TO.C,J3*%
X105500000Y-61495000D03*
D13*
X105500000Y-56495000D03*
%TD*%
D12*
%TO.C,J2*%
X105500000Y-71500000D03*
D13*
X105500000Y-66500000D03*
%TD*%
D15*
%TO.C,U8*%
X92377500Y-93533000D03*
X92377500Y-91633000D03*
X90502500Y-92583000D03*
%TD*%
D16*
%TO.C,C7*%
X92710000Y-89675000D03*
X92710000Y-88125000D03*
%TD*%
D17*
%TO.C,U9*%
X98044000Y-88076000D03*
X96774000Y-88076000D03*
X95504000Y-88076000D03*
X94234000Y-88076000D03*
X94234000Y-93026000D03*
X95504000Y-93026000D03*
X96774000Y-93026000D03*
X98044000Y-93026000D03*
%TD*%
D18*
%TO.C,D1*%
X89220000Y-87805500D03*
X91120000Y-87805500D03*
X90170000Y-85930500D03*
%TD*%
D12*
%TO.C,J4*%
X105500000Y-51500000D03*
D13*
X105500000Y-46500000D03*
%TD*%
D10*
%TO.C,J5*%
X84435000Y-44480000D03*
D11*
X86975000Y-44480000D03*
X84435000Y-47020000D03*
X86975000Y-47020000D03*
X84435000Y-49560000D03*
X86975000Y-49560000D03*
X84435000Y-52100000D03*
X86975000Y-52100000D03*
X84435000Y-54640000D03*
X86975000Y-54640000D03*
X84435000Y-57180000D03*
X86975000Y-57180000D03*
X84435000Y-59720000D03*
X86975000Y-59720000D03*
X84435000Y-62260000D03*
X86975000Y-62260000D03*
X84435000Y-64800000D03*
X86975000Y-64800000D03*
X84435000Y-67340000D03*
X86975000Y-67340000D03*
X84435000Y-69880000D03*
X86975000Y-69880000D03*
X84435000Y-72420000D03*
X86975000Y-72420000D03*
X84435000Y-74960000D03*
X86975000Y-74960000D03*
X84435000Y-77500000D03*
X86975000Y-77500000D03*
X84435000Y-80040000D03*
X86975000Y-80040000D03*
X84435000Y-82580000D03*
X86975000Y-82580000D03*
X84435000Y-85120000D03*
X86975000Y-85120000D03*
X84435000Y-87660000D03*
X86975000Y-87660000D03*
X84435000Y-90200000D03*
X86975000Y-90200000D03*
X84435000Y-92740000D03*
X86975000Y-92740000D03*
%TD*%
M02*
