%TF.GenerationSoftware,KiCad,Pcbnew,(6.0.9)*%
%TF.CreationDate,2022-11-25T17:28:49+01:00*%
%TF.ProjectId,gpio_isolated_switches,6770696f-5f69-4736-9f6c-617465645f73,rev?*%
%TF.SameCoordinates,Original*%
%TF.FileFunction,Legend,Bot*%
%TF.FilePolarity,Positive*%
%FSLAX46Y46*%
G04 Gerber Fmt 4.6, Leading zero omitted, Abs format (unit mm)*
G04 Created by KiCad (PCBNEW (6.0.9)) date 2022-11-25 17:28:49*
%MOMM*%
%LPD*%
G01*
G04 APERTURE LIST*
%ADD10C,0.200000*%
%ADD11C,0.120000*%
G04 APERTURE END LIST*
D10*
X109446428Y-72252380D02*
X109446428Y-70347619D01*
X108494047Y-71300000D02*
X110398809Y-71300000D01*
X109446428Y-67252380D02*
X109446428Y-65347619D01*
X109446428Y-52452380D02*
X109446428Y-50547619D01*
X108494047Y-51500000D02*
X110398809Y-51500000D01*
X109446428Y-47452380D02*
X109446428Y-45547619D01*
X102207142Y-77000000D02*
X102278571Y-77214285D01*
X102278571Y-77571428D01*
X102207142Y-77714285D01*
X102135714Y-77785714D01*
X101992857Y-77857142D01*
X101850000Y-77857142D01*
X101707142Y-77785714D01*
X101635714Y-77714285D01*
X101564285Y-77571428D01*
X101492857Y-77285714D01*
X101421428Y-77142857D01*
X101350000Y-77071428D01*
X101207142Y-77000000D01*
X101064285Y-77000000D01*
X100921428Y-77071428D01*
X100850000Y-77142857D01*
X100778571Y-77285714D01*
X100778571Y-77642857D01*
X100850000Y-77857142D01*
X100778571Y-78357142D02*
X102278571Y-78714285D01*
X101207142Y-79000000D01*
X102278571Y-79285714D01*
X100778571Y-79642857D01*
X100778571Y-80500000D02*
X100778571Y-80642857D01*
X100850000Y-80785714D01*
X100921428Y-80857142D01*
X101064285Y-80928571D01*
X101350000Y-81000000D01*
X101707142Y-81000000D01*
X101992857Y-80928571D01*
X102135714Y-80857142D01*
X102207142Y-80785714D01*
X102278571Y-80642857D01*
X102278571Y-80500000D01*
X102207142Y-80357142D01*
X102135714Y-80285714D01*
X101992857Y-80214285D01*
X101707142Y-80142857D01*
X101350000Y-80142857D01*
X101064285Y-80214285D01*
X100921428Y-80285714D01*
X100850000Y-80357142D01*
X100778571Y-80500000D01*
X102207142Y-66800000D02*
X102278571Y-67014285D01*
X102278571Y-67371428D01*
X102207142Y-67514285D01*
X102135714Y-67585714D01*
X101992857Y-67657142D01*
X101850000Y-67657142D01*
X101707142Y-67585714D01*
X101635714Y-67514285D01*
X101564285Y-67371428D01*
X101492857Y-67085714D01*
X101421428Y-66942857D01*
X101350000Y-66871428D01*
X101207142Y-66800000D01*
X101064285Y-66800000D01*
X100921428Y-66871428D01*
X100850000Y-66942857D01*
X100778571Y-67085714D01*
X100778571Y-67442857D01*
X100850000Y-67657142D01*
X100778571Y-68157142D02*
X102278571Y-68514285D01*
X101207142Y-68800000D01*
X102278571Y-69085714D01*
X100778571Y-69442857D01*
X102278571Y-70800000D02*
X102278571Y-69942857D01*
X102278571Y-70371428D02*
X100778571Y-70371428D01*
X100992857Y-70228571D01*
X101135714Y-70085714D01*
X101207142Y-69942857D01*
X102207142Y-46800000D02*
X102278571Y-47014285D01*
X102278571Y-47371428D01*
X102207142Y-47514285D01*
X102135714Y-47585714D01*
X101992857Y-47657142D01*
X101850000Y-47657142D01*
X101707142Y-47585714D01*
X101635714Y-47514285D01*
X101564285Y-47371428D01*
X101492857Y-47085714D01*
X101421428Y-46942857D01*
X101350000Y-46871428D01*
X101207142Y-46800000D01*
X101064285Y-46800000D01*
X100921428Y-46871428D01*
X100850000Y-46942857D01*
X100778571Y-47085714D01*
X100778571Y-47442857D01*
X100850000Y-47657142D01*
X100778571Y-48157142D02*
X102278571Y-48514285D01*
X101207142Y-48800000D01*
X102278571Y-49085714D01*
X100778571Y-49442857D01*
X100778571Y-49871428D02*
X100778571Y-50800000D01*
X101350000Y-50300000D01*
X101350000Y-50514285D01*
X101421428Y-50657142D01*
X101492857Y-50728571D01*
X101635714Y-50800000D01*
X101992857Y-50800000D01*
X102135714Y-50728571D01*
X102207142Y-50657142D01*
X102278571Y-50514285D01*
X102278571Y-50085714D01*
X102207142Y-49942857D01*
X102135714Y-49871428D01*
X102278571Y-86535714D02*
X100778571Y-86535714D01*
X101278571Y-87250000D02*
X102278571Y-87250000D01*
X101421428Y-87250000D02*
X101350000Y-87321428D01*
X101278571Y-87464285D01*
X101278571Y-87678571D01*
X101350000Y-87821428D01*
X101492857Y-87892857D01*
X102278571Y-87892857D01*
X101278571Y-88607142D02*
X102778571Y-88607142D01*
X101350000Y-88607142D02*
X101278571Y-88750000D01*
X101278571Y-89035714D01*
X101350000Y-89178571D01*
X101421428Y-89250000D01*
X101564285Y-89321428D01*
X101992857Y-89321428D01*
X102135714Y-89250000D01*
X102207142Y-89178571D01*
X102278571Y-89035714D01*
X102278571Y-88750000D01*
X102207142Y-88607142D01*
X101278571Y-90607142D02*
X102278571Y-90607142D01*
X101278571Y-89964285D02*
X102064285Y-89964285D01*
X102207142Y-90035714D01*
X102278571Y-90178571D01*
X102278571Y-90392857D01*
X102207142Y-90535714D01*
X102135714Y-90607142D01*
X101278571Y-91107142D02*
X101278571Y-91678571D01*
X100778571Y-91321428D02*
X102064285Y-91321428D01*
X102207142Y-91392857D01*
X102278571Y-91535714D01*
X102278571Y-91678571D01*
X102207142Y-56800000D02*
X102278571Y-57014285D01*
X102278571Y-57371428D01*
X102207142Y-57514285D01*
X102135714Y-57585714D01*
X101992857Y-57657142D01*
X101850000Y-57657142D01*
X101707142Y-57585714D01*
X101635714Y-57514285D01*
X101564285Y-57371428D01*
X101492857Y-57085714D01*
X101421428Y-56942857D01*
X101350000Y-56871428D01*
X101207142Y-56800000D01*
X101064285Y-56800000D01*
X100921428Y-56871428D01*
X100850000Y-56942857D01*
X100778571Y-57085714D01*
X100778571Y-57442857D01*
X100850000Y-57657142D01*
X100778571Y-58157142D02*
X102278571Y-58514285D01*
X101207142Y-58800000D01*
X102278571Y-59085714D01*
X100778571Y-59442857D01*
X100921428Y-59942857D02*
X100850000Y-60014285D01*
X100778571Y-60157142D01*
X100778571Y-60514285D01*
X100850000Y-60657142D01*
X100921428Y-60728571D01*
X101064285Y-60800000D01*
X101207142Y-60800000D01*
X101421428Y-60728571D01*
X102278571Y-59871428D01*
X102278571Y-60800000D01*
X109446428Y-82252380D02*
X109446428Y-80347619D01*
X108494047Y-81300000D02*
X110398809Y-81300000D01*
X109446428Y-77252380D02*
X109446428Y-75347619D01*
X109446428Y-62252380D02*
X109446428Y-60347619D01*
X108494047Y-61300000D02*
X110398809Y-61300000D01*
X109446428Y-57252380D02*
X109446428Y-55347619D01*
X109426428Y-92479380D02*
X109426428Y-90574619D01*
X108474047Y-91527000D02*
X110378809Y-91527000D01*
X109426428Y-87479380D02*
X109426428Y-85574619D01*
D11*
%TO.C,Q2*%
X95230000Y-58285000D02*
X95525000Y-58285000D01*
X98770000Y-61125000D02*
X98475000Y-61125000D01*
X98770000Y-58285000D02*
X98770000Y-61125000D01*
X98475000Y-58285000D02*
X98770000Y-58285000D01*
X95230000Y-61125000D02*
X95230000Y-58285000D01*
X98475000Y-61855000D02*
X98475000Y-61125000D01*
X95525000Y-61125000D02*
X95230000Y-61125000D01*
%TO.C,Q3*%
X95230000Y-54220000D02*
X95230000Y-51380000D01*
X98475000Y-51380000D02*
X98770000Y-51380000D01*
X98770000Y-54220000D02*
X98475000Y-54220000D01*
X95525000Y-54220000D02*
X95230000Y-54220000D01*
X98770000Y-51380000D02*
X98770000Y-54220000D01*
X95230000Y-51380000D02*
X95525000Y-51380000D01*
X98475000Y-54950000D02*
X98475000Y-54220000D01*
%TO.C,U6*%
X97560000Y-86140000D02*
X97560000Y-86370000D01*
X94840000Y-86140000D02*
X94840000Y-87450000D01*
X97560000Y-90860000D02*
X97560000Y-90630000D01*
X97560000Y-86140000D02*
X94840000Y-86140000D01*
X94840000Y-89550000D02*
X94840000Y-90860000D01*
X98700000Y-86370000D02*
X97560000Y-86370000D01*
X94840000Y-90860000D02*
X97560000Y-90860000D01*
%TO.C,U1*%
X92135000Y-63990000D02*
X92135000Y-64270000D01*
X94520000Y-74510000D02*
X96905000Y-74510000D01*
X94520000Y-63990000D02*
X96905000Y-63990000D01*
X96905000Y-74510000D02*
X96905000Y-74230000D01*
X94520000Y-74510000D02*
X92135000Y-74510000D01*
X92135000Y-74230000D02*
X90470000Y-74230000D01*
X92135000Y-74510000D02*
X92135000Y-74230000D01*
X94520000Y-63990000D02*
X92135000Y-63990000D01*
X96905000Y-63990000D02*
X96905000Y-64270000D01*
%TO.C,C3*%
X93359420Y-51605000D02*
X93640580Y-51605000D01*
X93359420Y-50585000D02*
X93640580Y-50585000D01*
%TO.C,U5*%
X93000000Y-48310000D02*
X91200000Y-48310000D01*
X93000000Y-45190000D02*
X93800000Y-45190000D01*
X93000000Y-45190000D02*
X92200000Y-45190000D01*
X93000000Y-48310000D02*
X93800000Y-48310000D01*
%TO.C,Q4*%
X95525000Y-47375000D02*
X95230000Y-47375000D01*
X95230000Y-44535000D02*
X95525000Y-44535000D01*
X98770000Y-47375000D02*
X98475000Y-47375000D01*
X98770000Y-44535000D02*
X98770000Y-47375000D01*
X98475000Y-44535000D02*
X98770000Y-44535000D01*
X95230000Y-47375000D02*
X95230000Y-44535000D01*
X98475000Y-48105000D02*
X98475000Y-47375000D01*
%TO.C,U4*%
X93000000Y-55155000D02*
X91200000Y-55155000D01*
X93000000Y-52035000D02*
X93800000Y-52035000D01*
X93000000Y-52035000D02*
X92200000Y-52035000D01*
X93000000Y-55155000D02*
X93800000Y-55155000D01*
%TO.C,R2*%
X88631500Y-71611258D02*
X88631500Y-71136742D01*
X89676500Y-71611258D02*
X89676500Y-71136742D01*
%TO.C,C6*%
X94740000Y-84640580D02*
X94740000Y-84359420D01*
X95760000Y-84640580D02*
X95760000Y-84359420D01*
%TO.C,U3*%
X93000000Y-58940000D02*
X93800000Y-58940000D01*
X93000000Y-58940000D02*
X92200000Y-58940000D01*
X93000000Y-62060000D02*
X93800000Y-62060000D01*
X93000000Y-62060000D02*
X91200000Y-62060000D01*
%TO.C,C2*%
X93359420Y-57490000D02*
X93640580Y-57490000D01*
X93359420Y-58510000D02*
X93640580Y-58510000D01*
%TO.C,R7*%
X94762742Y-55572500D02*
X95237258Y-55572500D01*
X94762742Y-56617500D02*
X95237258Y-56617500D01*
%TO.C,R9*%
X97737258Y-85772500D02*
X97262742Y-85772500D01*
X97737258Y-84727500D02*
X97262742Y-84727500D01*
%TO.C,C4*%
X93359420Y-44760000D02*
X93640580Y-44760000D01*
X93359420Y-43740000D02*
X93640580Y-43740000D01*
%TO.C,J5*%
X85705000Y-45750000D02*
X83105000Y-45750000D01*
X88305000Y-94070000D02*
X83105000Y-94070000D01*
X83105000Y-43150000D02*
X83105000Y-44480000D01*
X88305000Y-43150000D02*
X88305000Y-94070000D01*
X84435000Y-43150000D02*
X83105000Y-43150000D01*
X83105000Y-45750000D02*
X83105000Y-94070000D01*
X85705000Y-43150000D02*
X85705000Y-45750000D01*
X88305000Y-43150000D02*
X85705000Y-43150000D01*
%TO.C,R4*%
X89676500Y-63770742D02*
X89676500Y-64245258D01*
X88631500Y-63770742D02*
X88631500Y-64245258D01*
%TO.C,R8*%
X94762742Y-49772500D02*
X95237258Y-49772500D01*
X94762742Y-48727500D02*
X95237258Y-48727500D01*
%TO.C,R1*%
X88631500Y-74913258D02*
X88631500Y-74438742D01*
X89676500Y-74913258D02*
X89676500Y-74438742D01*
%TO.C,R3*%
X89676500Y-68309258D02*
X89676500Y-67834742D01*
X88631500Y-68309258D02*
X88631500Y-67834742D01*
%TO.C,R10*%
X97262742Y-83227500D02*
X97737258Y-83227500D01*
X97262742Y-84272500D02*
X97737258Y-84272500D01*
%TO.C,R6*%
X94762742Y-63522500D02*
X95237258Y-63522500D01*
X94762742Y-62477500D02*
X95237258Y-62477500D01*
%TO.C,C5*%
X97740000Y-92359420D02*
X97740000Y-92640580D01*
X98760000Y-92359420D02*
X98760000Y-92640580D01*
%TD*%
M02*
